<svg width="24" height="24" viewBox="0 0 24 24" fill="none" xmlns="http://www.w3.org/2000/svg">
<path d="M7.00709 19.9998C6.44742 19.9998 6.00767 19.5501 6.00767 19.0004V7.41764L3.719 9.7162C3.31923 10.106 2.6896 10.106 2.29983 9.7162C1.90006 9.31645 1.90006 8.68684 2.29983 8.29709L6.2975 4.29958C6.38745 4.19965 6.49739 4.12969 6.62731 4.08972C6.74724 4.02975 6.86717 4.00977 7.00709 4.00977C7.13701 4.00977 7.25694 4.02975 7.38687 4.08972C7.5068 4.12969 7.61674 4.19965 7.71668 4.29958L11.7144 8.29709C12.1041 8.68684 12.1041 9.31645 11.7144 9.7162C11.3146 10.106 10.685 10.106 10.2952 9.7162L8.00651 7.41764V19.0004C8.00651 19.5501 7.55677 19.9998 7.00709 19.9998Z" fill="#1C8393"/>
<path d="M17.0014 20C16.8614 19.99 16.7415 19.97 16.6216 19.9201C16.4917 19.8701 16.3817 19.8001 16.2918 19.7102L12.2941 15.7127C11.8943 15.3129 11.8943 14.6833 12.2931 14.2936C12.6829 13.8938 13.3125 13.8938 13.7123 14.2926L16.0009 16.5911V4.99938C16.0009 4.43972 16.4407 4 17.0004 4C17.55 4 17.9998 4.43972 17.9998 4.99938V16.5821L20.2884 14.2836C20.6782 13.8838 21.3079 13.8838 21.7076 14.2826C22.0974 14.6723 22.0974 15.3019 21.7076 15.7017L17.7099 19.6992C17.61 19.7891 17.5001 19.8591 17.3801 19.9091C17.2502 19.959 17.1303 19.979 17.0004 19.989L17.0014 20Z" fill="#9D9D9D"/>
</svg>
