<?xml version="1.0" encoding="UTF-8"?>
<!-- This file is generated by npm run build:icons -->
<svg xmlns="http://www.w3.org/2000/svg" xmlns:xlink="http://www.w3.org/1999/xlink" width="0" height="0">
<defs>
<symbol viewBox="0 0 24 24" id="calendar">
<path fill-rule="evenodd" clip-rule="evenodd" d="M16 2C16.5128 2 16.9355 2.38604 16.9933 2.88338L17 3V4H18C19.6569 4 21 5.34315 21 7V11V19C21 20.6569 19.6569 22 18 22H6C4.34315 22 3 20.6569 3 19V11V7C3 5.34315 4.34315 4 6 4H7V3C7 2.44772 7.44772 2 8 2C8.51284 2 8.93551 2.38604 8.99327 2.88338L9 3V4H15V3C15 2.44772 15.4477 2 16 2ZM19 7V10H5V7C5 6.44772 5.44772 6 6 6H7V7L7.00673 7.11662C7.06449 7.61396 7.48716 8 8 8C8.55228 8 9 7.55228 9 7V6H15V7L15.0067 7.11662C15.0645 7.61396 15.4872 8 16 8C16.5523 8 17 7.55228 17 7V6H18C18.5523 6 19 6.44772 19 7ZM19 12H5V19C5 19.5523 5.44772 20 6 20H18C18.5523 20 19 19.5523 19 19V12ZM7 15C7 14.4477 7.44772 14 8 14H10C10.5523 14 11 14.4477 11 15V17C11 17.5523 10.5523 18 10 18H8C7.44772 18 7 17.5523 7 17V15Z"></path>
</symbol>
<symbol viewBox="0 0 25 25" id="check">
<path fill-rule="evenodd" clip-rule="evenodd" d="M19.8447 6.79289C20.2352 6.40237 20.8683 6.40237 21.2589 6.79289C21.6193 7.15338 21.6471 7.72061 21.3421 8.1129L21.2589 8.20711L11.2589 18.2071C10.8984 18.5676 10.3311 18.5953 9.93886 18.2903L9.84465 18.2071L4.84465 13.2071C4.45413 12.8166 4.45413 12.1834 4.84465 11.7929C5.20514 11.4324 5.77237 11.4047 6.16466 11.7097L6.25886 11.7929L10.5518 16.085L19.8447 6.79289Z"></path>
</symbol>
<symbol viewBox="0 0 24 24" id="close">
<path fill-rule="evenodd" clip-rule="evenodd" d="M6.6129 5.2097C6.22061 4.90468 5.65338 4.93241 5.29289 5.29289C4.90237 5.68342 4.90237 6.31658 5.29289 6.70711L10.5858 12L5.29289 17.2929L5.2097 17.3871C4.90468 17.7794 4.93241 18.3466 5.29289 18.7071C5.68342 19.0976 6.31658 19.0976 6.70711 18.7071L12 13.4142L17.2929 18.7071L17.3871 18.7903C17.7794 19.0953 18.3466 19.0676 18.7071 18.7071C19.0976 18.3166 19.0976 17.6834 18.7071 17.2929L13.4142 12L18.7071 6.70711L18.7903 6.6129C19.0953 6.22061 19.0676 5.65338 18.7071 5.29289C18.3166 4.90237 17.6834 4.90237 17.2929 5.29289L12 10.5858L6.70711 5.29289L6.6129 5.2097Z"></path>
</symbol>
<symbol viewBox="0 0 24 24" id="copy">
<path fill-rule="evenodd" clip-rule="evenodd" d="M16.9949 5.82373C16.9037 4.24892 15.5977 3 14 3H6L5.82373 3.00509C4.24892 3.09634 3 4.40232 3 6V14L3.00509 14.1763C3.09634 15.7511 4.40232 17 6 17H7V18C7 19.6569 8.34315 21 10 21H18C19.6569 21 21 19.6569 21 18V10C21 8.34315 19.6569 7 18 7H17V6L16.9949 5.82373ZM15 7V6C15 5.48716 14.614 5.06449 14.1166 5.00673L14 5H6C5.48716 5 5.06449 5.38604 5.00673 5.88338L5 6V14C5 14.5128 5.38604 14.9355 5.88338 14.9933L6 15H7V10C7 8.34315 8.34315 7 10 7H15ZM9 16V18C9 18.5523 9.44772 19 10 19H18C18.5523 19 19 18.5523 19 18V10C19 9.44772 18.5523 9 18 9H16H10C9.44772 9 9 9.44772 9 10V16Z"></path>
</symbol>
<symbol viewBox="0 0 24 24" id="download">
<path fill-rule="evenodd" clip-rule="evenodd" d="M18.2929 22.7071C18.6834 23.0976 19.3166 23.0976 19.7071 22.7071L21.7071 20.7071C22.0976 20.3166 22.0976 19.6834 21.7071 19.2929C21.3166 18.9024 20.6834 18.9024 20.2929 19.2929L20 19.5858V16C20 15.4477 19.5523 15 19 15C18.4477 15 18 15.4477 18 16V19.5858L17.7071 19.2929C17.3166 18.9024 16.6834 18.9024 16.2929 19.2929C15.9024 19.6834 15.9024 20.3166 16.2929 20.7071L18.2929 22.7071Z"></path>
<path d="M9 11C10.1046 11 11 10.1046 11 9C11 7.89543 10.1046 7 9 7C7.89543 7 7 7.89543 7 9C7 10.1046 7.89543 11 9 11Z"></path>
<path d="M14.9098 13.0126C14.9873 12.9919 15.0687 12.9902 15.147 13.0076C15.1573 13.0099 15.2147 13.0225 15.4693 13.182C15.9373 13.4752 16.5544 13.3335 16.8476 12.8654C17.1408 12.3974 16.999 11.7803 16.531 11.4871C16.2539 11.3135 15.9495 11.137 15.5801 11.055C15.1885 10.9682 14.7817 10.9768 14.3942 11.0803C13.9492 11.199 13.5636 11.4756 13.1793 11.7513L13.0862 11.818L10.5806 13.607C10.1014 13.9491 10.042 13.9765 10.0013 13.989C9.93271 14.0101 9.86033 14.0162 9.78914 14.0068C9.74696 14.0012 9.68382 13.9841 9.15443 13.7265L8.62607 13.4693L8.54292 13.4287C8.19429 13.2583 7.84365 13.0868 7.4623 13.0288C7.12942 12.9782 6.78975 12.9953 6.46365 13.0792C6.09009 13.1753 5.75849 13.3812 5.4288 13.5859L5.35016 13.6347L3.47422 14.7946C3.00449 15.0851 2.85915 15.7014 3.1496 16.1711C3.44005 16.6408 4.05631 16.7862 4.52605 16.4957L6.40199 15.3358C6.867 15.0482 6.92308 15.0262 6.9619 15.0162C7.02712 14.9994 7.09506 14.996 7.16163 15.0061C7.20127 15.0121 7.25929 15.0284 7.75089 15.2677L8.27925 15.5248L8.36901 15.5686C8.74343 15.7518 9.11975 15.9359 9.52784 15.9896C9.8838 16.0366 10.2457 16.0062 10.5889 15.9008C10.9823 15.7798 11.3228 15.5357 11.6615 15.2928L11.7427 15.2347L14.2484 13.4457C14.7949 13.0555 14.8644 13.0248 14.9098 13.0126Z"></path>
<path fill-rule="evenodd" clip-rule="evenodd" d="M10.3572 3H13.6428C14.7266 2.99999 15.6007 2.99998 16.3086 3.05782C17.0375 3.11737 17.6777 3.24318 18.27 3.54497C19.2108 4.02433 19.9757 4.78924 20.455 5.73005C20.7568 6.32234 20.8826 6.96253 20.9422 7.69138C21 8.39925 21 9.27339 21 10.3572V12C21 12.5523 20.5523 13 20 13C19.4477 13 19 12.5523 19 12V10.4C19 9.26339 18.9992 8.47108 18.9488 7.85424C18.8994 7.24907 18.8072 6.90138 18.673 6.63803C18.3854 6.07354 17.9265 5.6146 17.362 5.32698C17.0986 5.19279 16.7509 5.10062 16.1458 5.05118C15.5289 5.00078 14.7366 5 13.6 5H10.4C9.26339 5 8.47108 5.00078 7.85424 5.05118C7.24907 5.10062 6.90138 5.19279 6.63803 5.32698C6.07354 5.6146 5.6146 6.07354 5.32698 6.63803C5.19279 6.90138 5.10062 7.24907 5.05118 7.85424C5.00078 8.47108 5 9.26339 5 10.4V13.6C5 14.7366 5.00078 15.5289 5.05118 16.1458C5.10062 16.7509 5.19279 17.0986 5.32698 17.362C5.6146 17.9265 6.07354 18.3854 6.63803 18.673C6.90138 18.8072 7.24907 18.8994 7.85424 18.9488C8.47108 18.9992 9.26339 19 10.4 19H13C13.5523 19 14 19.4477 14 20C14 20.5523 13.5523 21 13 21H10.3572C9.27339 21 8.39925 21 7.69138 20.9422C6.96253 20.8826 6.32234 20.7568 5.73005 20.455C4.78924 19.9757 4.02433 19.2108 3.54497 18.27C3.24318 17.6777 3.11737 17.0375 3.05782 16.3086C2.99998 15.6007 2.99999 14.7266 3 13.6428V10.3572C2.99999 9.27341 2.99998 8.39926 3.05782 7.69138C3.11737 6.96253 3.24318 6.32234 3.54497 5.73005C4.02433 4.78924 4.78924 4.02433 5.73005 3.54497C6.32234 3.24318 6.96253 3.11737 7.69138 3.05782C8.39926 2.99998 9.27341 2.99999 10.3572 3Z"></path>
</symbol>
<symbol viewBox="0 0 24 24" id="edit">
<path fill-rule="evenodd" clip-rule="evenodd" d="M13.7929 4.79295C15.288 3.29786 17.712 3.29786 19.2071 4.79295C20.6506 6.23649 20.7004 8.546 19.3564 10.0493L19.2071 10.2072L18.2071 11.2072L8.70711 20.7072C8.55083 20.8634 8.34815 20.9627 8.13144 20.9914L8 21.0001H4C3.48716 21.0001 3.06449 20.614 3.00673 20.1167L3 20.0001V16.0001C3 15.779 3.07316 15.5656 3.20608 15.392L3.29289 15.293L12.7927 5.79309C12.7928 5.79305 12.7928 5.793 12.7929 5.79295C12.7929 5.7929 12.793 5.79286 12.793 5.79281L13.7929 4.79295ZM13.5 7.91425L5 16.4141V18.9991H7.585L16.0856 10.4999L13.5 7.91425ZM17.5 9.08582L14.9142 6.50005L15.2071 6.20716L15.3301 6.09477C16.0484 5.49532 17.1185 5.53279 17.7929 6.20716L17.9053 6.33013C18.5047 7.04847 18.4673 8.11858 17.7929 8.79295L17.5 9.08582Z"></path>
</symbol>
<symbol viewBox="0 0 24 24" id="eye">
<path fill-rule="evenodd" clip-rule="evenodd" d="M12 4C16.2909 4 19.8627 6.4287 22.6646 11.154L22.8844 11.5329L22.9302 11.6328L22.9591 11.716L22.9736 11.7706L22.988 11.853L22.999 11.9535L22.9982 12.0639L22.9849 12.1744C22.9784 12.2112 22.9698 12.2477 22.9591 12.284L22.9203 12.3916L22.8844 12.4671L22.8682 12.4962C20.1039 17.3334 16.5685 19.8773 12.3127 19.9957L12 20C7.6044 20 3.96348 17.4514 1.13177 12.4962C0.956077 12.1887 0.956077 11.8113 1.13177 11.5038C3.96348 6.54862 7.6044 4 12 4ZM12 6C8.59033 6 5.69918 7.89478 3.27859 11.8059L3.161 12L3.27859 12.1941C5.63002 15.9935 8.42551 17.8901 11.709 17.9954L12 18C15.4097 18 18.3008 16.1052 20.7214 12.1941L20.838 12L20.7214 11.8059C18.37 8.00652 15.5745 6.10992 12.291 6.00464L12 6ZM12 9C10.3431 9 9 10.3431 9 12C9 13.6569 10.3431 15 12 15C13.6569 15 15 13.6569 15 12C15 10.3431 13.6569 9 12 9ZM12 11C12.5523 11 13 11.4477 13 12C13 12.5523 12.5523 13 12 13C11.4477 13 11 12.5523 11 12C11 11.4477 11.4477 11 12 11Z"></path>
</symbol>
<symbol viewBox="0 0 24 24" id="github">
<g clip-path="url(#clip0_40_1080)">
<path fill-rule="evenodd" clip-rule="evenodd" d="M0 12.3044C0 17.7398 3.43804 22.3519 8.20651 23.9789C8.8069 24.0922 9.02569 23.7123 9.02569 23.386C9.02569 23.0937 9.01538 22.3202 9.00948 21.2937C5.67163 22.0369 4.96737 19.644 4.96737 19.644C4.4215 18.2225 3.63473 17.8441 3.63473 17.8441C2.5452 17.0804 3.71724 17.0963 3.71724 17.0963C4.9217 17.1832 5.55524 18.3645 5.55524 18.3645C6.62635 20.2445 8.36416 19.7014 9.04779 19.3865C9.15682 18.5911 9.46696 18.0495 9.80951 17.7413C7.14497 17.4309 4.34341 16.3757 4.34341 11.6609C4.34341 10.3171 4.8112 9.21888 5.57881 8.35856C5.45578 8.04736 5.04399 6.79652 5.69668 5.10305C5.69668 5.10305 6.70444 4.77146 8.99622 6.36371C9.9539 6.09103 10.9801 5.95432 12.0004 5.94979C13.0199 5.95432 14.0461 6.09103 15.0052 6.36371C17.2956 4.77146 18.3019 5.10305 18.3019 5.10305C18.956 6.79652 18.5442 8.04736 18.4212 8.35856C19.1903 9.21888 19.6544 10.3171 19.6544 11.6609C19.6544 16.387 16.8491 17.4271 14.1758 17.7323C14.6067 18.1122 14.9898 18.863 14.9898 20.0104C14.9898 21.6555 14.9758 22.9826 14.9758 23.386C14.9758 23.7153 15.1916 24.0975 15.8009 23.9774C20.5649 22.3474 24 17.7391 24 12.3044C24 5.50867 18.6267 0 11.9989 0C5.37328 0 0 5.50867 0 12.3044Z"></path>
</g>
<defs>
<clipPath id="clip0_40_1080">
<rect width="24" height="24" fill="white"></rect>
</clipPath>
</defs>
</symbol>
<symbol viewBox="0 0 24 24" id="hide">
<path fill-rule="evenodd" clip-rule="evenodd" d="M2.29289 2.29289C2.65338 1.93241 3.22061 1.90468 3.6129 2.2097L3.70711 2.29289L17.9832 16.569C18.0385 16.6134 18.0897 16.6643 18.1356 16.7214L21.7071 20.2929C22.0976 20.6834 22.0976 21.3166 21.7071 21.7071C21.3466 22.0676 20.7794 22.0953 20.3871 21.7903L20.2929 21.7071L17.206 18.6203C15.6021 19.5382 13.8623 20 12 20C7.6044 20 3.96348 17.4514 1.13177 12.4962C0.956057 12.1887 0.956079 11.8112 1.13182 11.5037C2.32272 9.42032 3.65271 7.76402 5.12709 6.5413L2.29289 3.70711C1.90237 3.31658 1.90237 2.68342 2.29289 2.29289ZM6.54861 7.96282C5.40937 8.87487 4.34586 10.11 3.3617 11.6732L3.161 12L3.27859 12.1941C5.63002 15.9935 8.42551 17.8901 11.709 17.9954L12 18C13.326 18 14.5644 17.7155 15.7281 17.1423L13.2947 14.7089C12.1786 15.2434 10.8005 15.0479 9.8761 14.1229C8.95222 13.1984 8.75747 11.8212 9.29159 10.7058L6.54861 7.96282ZM11.2385 12.6527L11.3478 12.762C11.3283 12.7453 11.3093 12.7277 11.2908 12.7092C11.2725 12.6909 11.2551 12.672 11.2385 12.6527ZM11.9996 3.99994C16.3951 3.99994 20.0361 6.54859 22.8678 11.5038C23.0435 11.8113 23.0435 12.1888 22.8677 12.4963C22.0529 13.9217 21.1749 15.1455 20.2309 16.1668C19.8561 16.5723 19.2234 16.5972 18.8178 16.2224C18.4122 15.8475 18.3873 15.2148 18.7622 14.8092C19.4125 14.1056 20.0351 13.283 20.6292 12.3407L20.8386 12L20.721 11.8059C18.3695 8.00649 15.5739 6.10986 12.2873 6.00458L11.9961 5.99993C11.1984 5.99716 10.4044 6.10708 9.6376 6.32643C9.10661 6.47833 8.55302 6.17102 8.40113 5.64003C8.24923 5.10905 8.55654 4.55546 9.08753 4.40357C10.0355 4.1324 11.017 3.99652 11.9996 3.99994Z"></path>
</symbol>
<symbol viewBox="0 0 25 25" id="plus-only">
<path fill-rule="evenodd" clip-rule="evenodd" d="M13.4933 5.38338C13.4355 4.88604 13.0128 4.5 12.5 4.5C11.9477 4.5 11.5 4.94772 11.5 5.5V11.5H5.5L5.38338 11.5067C4.88604 11.5645 4.5 11.9872 4.5 12.5C4.5 13.0523 4.94772 13.5 5.5 13.5H11.5V19.5L11.5067 19.6166C11.5645 20.114 11.9872 20.5 12.5 20.5C13.0523 20.5 13.5 20.0523 13.5 19.5V13.5H19.5L19.6166 13.4933C20.114 13.4355 20.5 13.0128 20.5 12.5C20.5 11.9477 20.0523 11.5 19.5 11.5H13.5V5.5L13.4933 5.38338Z"></path>
</symbol>
<symbol viewBox="0 0 24 24" id="plus">
<path fill-rule="evenodd" clip-rule="evenodd" d="M2 12C2 6.47715 6.47715 2 12 2C17.5228 2 22 6.47715 22 12C22 17.5228 17.5228 22 12 22C6.47715 22 2 17.5228 2 12ZM20 12C20 7.58172 16.4183 4 12 4C7.58172 4 4 7.58172 4 12C4 16.4183 7.58172 20 12 20C16.4183 20 20 16.4183 20 12ZM15 11C15.5523 11 16 11.4477 16 12C16 12.5128 15.614 12.9355 15.1166 12.9933L15 13H13V15C13 15.5523 12.5523 16 12 16C11.4872 16 11.0645 15.614 11.0067 15.1166L11 15V13H9C8.44772 13 8 12.5523 8 12C8 11.4872 8.38604 11.0645 8.88338 11.0067L9 11H11V9C11 8.44772 11.4477 8 12 8C12.5128 8 12.9355 8.38604 12.9933 8.88338L13 9V11H15Z"></path>
</symbol>
<symbol viewBox="0 0 24 24" id="show">
<path fill-rule="evenodd" clip-rule="evenodd" d="M12 4C16.2909 4 19.8627 6.4287 22.6646 11.154L22.8844 11.5329L22.9302 11.6328L22.9591 11.716L22.9736 11.7706L22.988 11.853L22.999 11.9535L22.9982 12.0639L22.9849 12.1744C22.9784 12.2112 22.9698 12.2477 22.9591 12.284L22.9203 12.3916L22.8844 12.4671L22.8682 12.4962C20.1039 17.3334 16.5685 19.8773 12.3127 19.9957L12 20C7.6044 20 3.96348 17.4514 1.13177 12.4962C0.956077 12.1887 0.956077 11.8113 1.13177 11.5038C3.96348 6.54862 7.6044 4 12 4ZM12 6C8.59033 6 5.69918 7.89478 3.27859 11.8059L3.161 12L3.27859 12.1941C5.63002 15.9935 8.42551 17.8901 11.709 17.9954L12 18C15.4097 18 18.3008 16.1052 20.7214 12.1941L20.838 12L20.7214 11.8059C18.37 8.00652 15.5745 6.10992 12.291 6.00464L12 6ZM12 9C10.3431 9 9 10.3431 9 12C9 13.6569 10.3431 15 12 15C13.6569 15 15 13.6569 15 12C15 10.3431 13.6569 9 12 9ZM12 11C12.5523 11 13 11.4477 13 12C13 12.5523 12.5523 13 12 13C11.4477 13 11 12.5523 11 12C11 11.4477 11.4477 11 12 11Z"></path>
</symbol>
<symbol viewBox="0 0 24 24" id="trash">
<path fill-rule="evenodd" clip-rule="evenodd" d="M15.9945 3.85074C15.9182 2.81588 15.0544 2 14 2H10L9.85074 2.00549C8.81588 2.08183 8 2.94564 8 4V6H5.01169H4.99054H4L3.88338 6.00673C3.38604 6.06449 3 6.48716 3 7C3 7.55228 3.44772 8 4 8H4.07987L5.00345 19.083L5.00819 19.2507C5.09634 20.7511 6.40232 22 8 22H16L16.1763 21.9949C17.7511 21.9037 19 20.5977 19 19L19.9199 8H20L20.1166 7.99327C20.614 7.93551 21 7.51284 21 7C21 6.44772 20.5523 6 20 6H16V4L15.9945 3.85074ZM14 6V4H10V6H14ZM9 8H6.08649L7 19C7 19.5128 7.38604 19.9355 7.88338 19.9933L8 20H16C16.5155 20 16.9398 19.61 16.9969 19.0414L17.0035 18.917L17.9132 8H15H9ZM10 10C10.5128 10 10.9355 10.386 10.9933 10.8834L11 11V17C11 17.5523 10.5523 18 10 18C9.48716 18 9.06449 17.614 9.00673 17.1166L9 17V11C9 10.4477 9.44772 10 10 10ZM14.9933 10.8834C14.9355 10.386 14.5128 10 14 10C13.4477 10 13 10.4477 13 11V17L13.0067 17.1166C13.0645 17.614 13.4872 18 14 18C14.5523 18 15 17.5523 15 17V11L14.9933 10.8834Z"></path>
</symbol>
<symbol viewBox="0 0 24 24" id="twitter">
<path fill-rule="evenodd" clip-rule="evenodd" d="M14.0581 3.41062C12.2506 4.17678 11.0629 5.86276 11.0021 7.79013L11 7.97184L10.7566 7.9486C8.36496 7.68088 6.25862 6.43677 4.81312 4.41771C4.38714 3.82271 3.48731 3.87173 3.12849 4.50949L3.03061 4.69582L2.982 4.79441C2.2635 6.27975 1.79133 8.08572 1.96552 9.99814L1.99499 10.2712C2.27782 12.5341 3.49419 14.4856 5.77367 15.9493L5.94702 16.0568L5.86593 16.0999C4.55075 16.7625 3.34776 17.0515 2.03891 17.0006C0.982577 16.9595 0.593233 18.372 1.52145 18.8779C5.1192 20.8388 8.9821 21.4441 12.3128 20.4772C16.3734 19.2976 19.4652 16.2548 20.6478 12.0453L20.7751 11.5502C21.0125 10.5568 21.1467 9.54398 21.1761 8.52578L21.18 8.18984L22.0638 6.44843L22.2585 6.0501C22.5692 5.40184 22.7884 4.87805 22.9179 4.44242L22.964 4.27569C23.1932 3.44478 22.334 2.73258 21.56 3.11185C21.287 3.24561 21.0008 3.36179 20.6809 3.47118L20.324 3.58677L20.053 3.66693L19.281 3.88084C17.9447 2.76308 16.1369 2.62703 14.2693 3.32634L14.0581 3.41062ZM18.2516 5.66306C18.5089 5.95343 18.9109 6.06875 19.2831 5.95895L19.8064 5.81082L20.2 5.70184L19.4368 7.19656L19.3309 7.41475C19.3015 7.47786 19.2778 7.53239 19.2586 7.58145L19.2139 7.71539C19.1974 7.7773 19.1888 7.83394 19.1849 7.89586L19.1821 8.02987C19.1885 9.20363 19.0334 10.3752 18.7209 11.5092C17.7292 15.0394 15.1607 17.5672 11.755 18.5565L11.4431 18.641C9.66328 19.0886 7.67948 19.0105 5.66867 18.4391L5.57302 18.4108C6.54229 18.0492 7.51688 17.5232 8.55441 16.8321C9.21313 16.3933 9.12519 15.3995 8.39965 15.0832C5.48207 13.8112 4.1571 12.0107 3.95727 9.81672L3.93611 9.49831C3.90029 8.6502 4.0269 7.81227 4.25325 7.03753L4.29602 6.89984L4.46688 7.07146C6.47447 9.02033 9.13705 10.0734 12.0256 9.99951C12.5677 9.98564 13 9.54216 13 8.99984V7.99984C12.9829 6.74766 13.7533 5.6552 14.9707 5.19933C16.3629 4.67803 17.5151 4.83192 18.2516 5.66306Z"></path>
</symbol>
<symbol viewBox="0 0 24 24" id="upload">
<path fill-rule="evenodd" clip-rule="evenodd" d="M13.4341 6.03568C10.8361 5.55732 8.45415 7.08585 7.97892 9.21954C7.87705 9.67689 7.47114 10.0022 7.00237 10.0022C4.9122 10.0022 3.30071 11.6051 3.30071 13.5022C3.30071 15.388 4.92085 17.0022 7.01238 17.0022C7.56491 17.0022 8.01283 17.4499 8.01283 18.0022C8.01283 18.5545 7.56491 19.0022 7.01238 19.0022C3.90156 19.0022 1.2998 16.5764 1.2998 13.5022C1.2998 10.6747 3.47888 8.40718 6.241 8.05098C7.30488 5.15062 10.5739 3.47598 13.7953 4.06854C16.8629 4.62568 19.1289 7.11064 19.114 10.0037C21.5421 10.0652 23.4998 12.0471 23.4998 14.5022C23.4998 16.9845 21.4812 19.0022 18.9978 19.0022H17.9973C17.4448 19.0022 16.9969 18.5545 16.9969 18.0022C16.9969 17.4499 17.4448 17.0022 17.9973 17.0022H18.9978C20.3761 17.0022 21.4989 15.8799 21.4989 14.5022C21.4989 13.1164 20.378 12.0022 18.9978 12.0022H17.9973C17.6932 12.0022 17.4056 11.8639 17.2157 11.6264C17.0259 11.389 16.9544 11.078 17.0215 10.7815C17.495 8.69033 16.0071 6.50252 13.4367 6.03615L13.4341 6.03568Z"></path>
<path fill-rule="evenodd" clip-rule="evenodd" d="M11.3072 11.2951C11.6979 10.9046 12.3314 10.9046 12.7221 11.2951L15.7234 14.2951C16.1141 14.6856 16.1141 15.3188 15.7234 15.7093C15.3327 16.0999 14.6993 16.0999 14.3086 15.7093L12.0146 13.4164L9.72071 15.7093C9.33 16.0999 8.69655 16.0999 8.30585 15.7093C7.91515 15.3188 7.91515 14.6856 8.30585 14.2951L11.3072 11.2951Z"></path>
<path fill-rule="evenodd" clip-rule="evenodd" d="M12.0146 11.0022C12.5672 11.0022 13.0151 11.4499 13.0151 12.0022V21.0022C13.0151 21.5545 12.5672 22.0022 12.0146 22.0022C11.4621 22.0022 11.0142 21.5545 11.0142 21.0022V12.0022C11.0142 11.4499 11.4621 11.0022 12.0146 11.0022Z"></path>
</symbol>
</defs>
</svg>
