<svg width="108" height="108" viewBox="0 0 108 108" fill="none" xmlns="http://www.w3.org/2000/svg">
<path fill-rule="evenodd" clip-rule="evenodd" d="M0 0H108V108L62.8493 62.8493L66.8433 58.8553C68.6538 57.0449 69.4767 54.9053 68.9829 52.1073C73.0976 55.5636 76.7185 57.5386 80.1747 57.7032C83.631 57.8678 87.0873 56.3865 90.7082 52.7657C93.3416 50.1323 94.8228 47.0052 94.9874 43.5489C96.1395 43.0551 97.2916 42.2322 98.2791 41.2447C99.5958 39.928 100.583 38.2822 101.077 36.4717C99.7604 35.155 98.4437 34.1675 96.9624 33.6738C95.6458 33.0154 93.8353 32.5217 91.5311 32.1925C90.2144 30.2175 88.7332 28.407 86.9227 26.5966C84.7831 24.457 82.6435 22.9757 80.5039 21.4945C80.1747 19.1903 79.681 17.3798 79.1872 15.8986C78.6935 14.4173 77.706 13.1006 76.3893 11.7839C74.5788 12.2777 72.933 13.2652 71.6163 14.5819C70.8349 15.3633 70.2596 16.1447 69.5642 17.0892C69.3808 17.3383 69.189 17.5988 68.9829 17.8736C65.5267 18.0382 62.3995 19.5194 59.7662 22.1528C56.1453 25.7737 54.4995 29.3946 54.8286 32.6863C55.1578 35.978 56.9682 39.7634 60.4245 43.8781C58.7787 43.5489 56.9682 43.7135 55.487 44.8656C54.1703 44.2072 53.1828 43.5489 52.1953 42.5614C51.3723 41.7384 50.8786 40.9155 50.714 40.0926C50.5494 39.2697 50.3848 38.4467 50.5494 37.6238C50.5494 36.6363 50.714 35.8134 50.8786 34.9905C51.0432 34.1675 50.8786 33.3446 50.714 32.5217C50.5494 31.6987 50.0557 30.8758 49.3973 30.2175C48.739 29.5591 48.4098 29.23 48.0806 29.5591C47.916 29.7237 47.916 30.0529 48.0806 30.5466C48.0806 30.8758 48.1218 31.1638 48.1629 31.4519C48.2041 31.7399 48.2452 32.0279 48.2452 32.3571V33.6738C48.2452 34.6613 47.916 35.978 47.4223 37.1301C46.1056 40.4218 46.764 43.3843 49.2327 45.8531C49.5619 46.1822 50.2202 46.8406 51.7015 47.9927L49.8471 49.8471L0 0Z" fill="black"/>
</svg>
