<svg width="160" height="46" viewBox="0 0 160 46" fill="none" xmlns="http://www.w3.org/2000/svg">
<path fill-rule="evenodd" clip-rule="evenodd" d="M11.905 3.24714C10.8694 3.7705 8.68701 4.78882 7.50495 5.60153C6.32289 6.41424 6.46944 7.17162 5.95205 7.69499C5.43467 8.21835 3.88102 9.52602 2.84626 10.3103C1.81074 11.0954 2.06944 13.1888 1.81074 13.9739C1.55205 14.7582 1.03467 16.5892 0.775978 17.3742C0.516538 18.1593 1.29336 19.206 1.81074 20.2527C2.32888 21.2987 3.62233 24.1765 4.14046 25.2225C4.65785 26.2692 6.21149 25.7458 7.50495 26.7926C8.79841 27.8393 10.6107 29.1477 11.905 29.932C13.1984 30.717 13.7165 30.717 15.0107 29.932C16.3042 29.1469 18.1165 27.8385 19.4107 26.7918C20.7042 25.7458 22.2578 26.2692 22.7752 25.2225C23.2926 24.1757 24.5868 21.2987 25.105 20.252C25.6223 19.2053 26.3984 18.1585 26.1397 17.3742C25.881 16.5892 25.3636 14.7574 25.105 13.9731C24.8463 13.1881 25.105 11.0954 24.0694 10.3103C23.0339 9.52527 21.8324 8.52639 20.9636 7.69424C20.0949 6.86209 20.4463 6.38583 19.4107 5.60078C18.3752 4.81648 16.0463 3.7705 15.0107 3.24714C13.9752 2.72377 12.9397 2.72377 11.905 3.24714Z" fill="white"/>
<path fill-rule="evenodd" clip-rule="evenodd" d="M8.24955 7.78616L13.0937 11.1095C13.2026 11.1827 13.3303 11.2229 13.4615 11.2254C13.5929 11.2242 13.721 11.1839 13.8294 11.1095L18.6772 7.77494C18.7702 7.7079 18.8444 7.61799 18.8925 7.5139C18.9405 7.40981 18.9609 7.29507 18.9517 7.18079C18.9424 7.0665 18.9039 6.95654 18.8397 6.86154C18.7755 6.76653 18.6878 6.68971 18.5852 6.6385L13.7411 4.22803C13.6506 4.18377 13.5511 4.16077 13.4503 4.16077C13.3495 4.16077 13.25 4.18377 13.1595 4.22803L8.32955 6.6385C8.22501 6.68982 8.13577 6.76769 8.07075 6.86431C8.00574 6.96093 7.96722 7.07293 7.95904 7.1891C7.95087 7.30527 7.97333 7.42156 8.02418 7.52633C8.07502 7.63111 8.15248 7.7207 8.2488 7.78616H8.24955ZM15.1071 12.1525C15.107 12.2608 15.1331 12.3675 15.1831 12.4636C15.2331 12.5596 15.3055 12.6422 15.3942 12.7043L19.2776 15.372C19.3981 15.4556 19.5433 15.496 19.6897 15.4864C19.8361 15.4769 19.9749 15.4181 20.0836 15.3196L23.3411 12.391C23.4131 12.3263 23.4701 12.2466 23.5082 12.1576C23.5462 12.0687 23.5645 11.9724 23.5616 11.8757C23.5588 11.7789 23.5349 11.684 23.4917 11.5974C23.4484 11.5108 23.3869 11.4346 23.3112 11.3742L20.2009 8.87401C20.0913 8.78625 19.9563 8.73598 19.816 8.7306C19.6756 8.72522 19.5372 8.765 19.4211 8.8441L15.3942 11.6127C15.307 11.6737 15.2356 11.7545 15.1856 11.8484C15.1357 11.9424 15.1088 12.0461 15.1071 12.1525ZM5.44805 15.7817C5.60506 15.9237 5.68581 16.1331 5.66488 16.3447C5.65512 16.4493 5.62025 16.55 5.56324 16.6382C5.50623 16.7265 5.42875 16.7997 5.3374 16.8516L3.01889 18.249C2.78338 18.3895 2.48656 18.3693 2.27273 18.1974C2.05889 18.0254 1.97142 17.7376 2.05441 17.4736L2.91198 14.7611C2.94458 14.6558 3.00307 14.5604 3.0821 14.4836C3.16113 14.4068 3.25816 14.3511 3.36431 14.3215C3.47008 14.2905 3.58209 14.2876 3.68932 14.313C3.79656 14.3384 3.89533 14.3913 3.9759 14.4665L5.44805 15.7817ZM18.026 16.0658L13.8331 13.1813C13.7245 13.1077 13.5964 13.0684 13.4652 13.0684C13.3341 13.0684 13.206 13.1077 13.0974 13.1813L8.9045 16.065C8.82191 16.1228 8.75327 16.1983 8.7036 16.286C8.65393 16.3737 8.62448 16.4714 8.6174 16.572C8.61187 16.6733 8.62876 16.7747 8.66689 16.8687C8.70501 16.9628 8.76342 17.0473 8.83796 17.1163L13.0271 20.883C13.1473 20.9914 13.3034 21.0514 13.4652 21.0514C13.6271 21.0514 13.7832 20.9914 13.9034 20.883L18.0918 17.1155C18.1664 17.047 18.2247 16.9626 18.2622 16.8685C18.2998 16.7744 18.3156 16.673 18.3086 16.572C18.3032 16.4715 18.2749 16.3737 18.2259 16.2858C18.1769 16.198 18.1086 16.1225 18.026 16.065V16.0658ZM6.84319 15.3196L3.58861 12.391C3.51607 12.3247 3.45873 12.2434 3.42053 12.1528C3.38233 12.0622 3.36417 11.9644 3.36731 11.8662C3.36885 11.7693 3.39177 11.674 3.43442 11.587C3.47707 11.5 3.5384 11.4235 3.61403 11.363L6.72432 8.84784C6.83484 8.76003 6.97051 8.70979 7.11157 8.70441C7.25262 8.69903 7.39172 8.7388 7.50861 8.81793L11.5318 11.5865C11.7187 11.7099 11.8309 11.92 11.8309 12.1458C11.8309 12.3716 11.7187 12.5809 11.5318 12.7043L7.65216 15.372C7.4017 15.5439 7.06974 15.5215 6.84319 15.3196ZM23.5512 19.5267L20.2383 17.5335C20.1186 17.4609 19.9787 17.4289 19.8394 17.4424C19.7 17.4559 19.5688 17.514 19.4652 17.6082L15.4159 21.2404C15.332 21.3162 15.2685 21.412 15.2315 21.5189C15.1945 21.6258 15.1851 21.7404 15.2042 21.8519C15.2233 21.9634 15.2703 22.0683 15.3407 22.1568C15.4112 22.2453 15.5029 22.3145 15.6073 22.3581L21.2245 24.646C21.383 24.709 21.5598 24.7081 21.7177 24.6434C21.8756 24.5787 22.0022 24.4552 22.0709 24.2991L23.8129 20.3798C23.8814 20.2302 23.8925 20.0608 23.8443 19.9035C23.7961 19.7463 23.6918 19.6122 23.5512 19.5267ZM24.011 14.7611L24.8686 17.4736H24.8611C24.8924 17.5737 24.8999 17.6796 24.883 17.7831C24.8662 17.8865 24.8254 17.9846 24.7639 18.0695C24.668 18.2024 24.5257 18.2946 24.3652 18.3278C24.2046 18.361 24.0375 18.3329 23.8966 18.249L21.5744 16.8508C21.4849 16.798 21.4094 16.7245 21.3542 16.6364C21.299 16.5483 21.2658 16.4483 21.2574 16.3447C21.2465 16.2404 21.2605 16.135 21.2982 16.0371C21.3359 15.9393 21.3962 15.8517 21.4742 15.7817L22.9471 14.4628C23.1138 14.3133 23.3434 14.2587 23.558 14.3177C23.6642 14.3485 23.7612 14.4051 23.8403 14.4824C23.9193 14.5598 23.978 14.6556 24.011 14.7611ZM11.7232 21.8512C11.7428 21.74 11.7339 21.6256 11.6973 21.5188C11.6607 21.412 11.5976 21.3162 11.5138 21.2404L7.46525 17.6075C7.36169 17.5133 7.23045 17.4551 7.09113 17.4417C6.9518 17.4282 6.81185 17.4601 6.69217 17.5327L3.38002 19.5267C3.24093 19.6126 3.1375 19.7458 3.08874 19.9018C3.03998 20.0579 3.04916 20.2263 3.1146 20.3761L4.85889 24.2961C4.92711 24.4528 5.05384 24.5767 5.21207 24.6414C5.37031 24.706 5.54754 24.7063 5.706 24.6422L11.3195 22.3544C11.4239 22.3118 11.5159 22.2433 11.5866 22.1555C11.6574 22.0676 11.7046 21.9631 11.7239 21.852L11.7232 21.8512ZM13.7112 22.969L18.2167 24.8022C18.3253 24.8494 18.4193 24.9247 18.4891 25.0204C18.5589 25.1161 18.6019 25.2287 18.6137 25.3465C18.6278 25.4658 18.6093 25.5867 18.5601 25.6963C18.5108 25.8059 18.4327 25.9 18.334 25.9686L13.8256 29.117C13.7178 29.1934 13.5892 29.2352 13.457 29.2366C13.3252 29.2343 13.1971 29.1927 13.0892 29.117L8.58375 25.9693C8.48464 25.9011 8.40588 25.8072 8.35583 25.6978C8.30579 25.5883 8.28632 25.4674 8.29951 25.3477C8.3127 25.2281 8.35805 25.1143 8.43074 25.0184C8.50343 24.9225 8.60075 24.848 8.71235 24.803L13.2178 22.9697C13.3761 22.9062 13.5529 22.9054 13.7112 22.969Z" fill="#BF4722"/>
<mask id="mask0_3_173" style="mask-type:luminance" maskUnits="userSpaceOnUse" x="32" y="7" width="122" height="24">
<path d="M32.8972 7.45789H153.271V30.6355H32.8972V7.45789Z" fill="white"/>
</mask>
<g mask="url(#mask0_3_173)">
<path d="M36.5428 16.0777H37.7182C38.871 16.0777 39.7219 15.8878 40.2699 15.5095C40.8187 15.1304 41.0931 14.5345 41.0931 13.7225C41.0931 12.9181 40.8112 12.3461 40.2468 12.0059C39.6897 11.665 38.8239 11.4952 37.6479 11.4952H36.5428V16.0777ZM36.5428 19.001V25.5087H32.8972V8.54871H37.9066C40.243 8.54871 41.9716 8.97039 43.0924 9.813C44.2139 10.6481 44.7739 11.9207 44.7739 13.6298C44.7739 14.6272 44.4957 15.5169 43.9387 16.2982C43.3825 17.0713 42.5944 17.6784 41.5761 18.1195C44.163 21.9326 45.8482 24.3954 46.6318 25.5087H42.5869L38.4823 19.001H36.5428Z" fill="#14121B"/>
<path d="M51.9012 14.8134C51.1408 14.8134 50.5449 15.0527 50.1143 15.5327C49.6821 16.0037 49.4354 16.6766 49.3726 17.5513H54.4059C54.3902 16.6766 54.1591 16.0037 53.712 15.5327C53.2649 15.0527 52.6616 14.8134 51.9012 14.8134ZM52.4066 25.7413C50.2907 25.7413 48.6362 25.1656 47.4444 24.0127C46.2526 22.8605 45.6575 21.2284 45.6575 19.117C45.6575 16.9435 46.2055 15.2657 47.3031 14.0822C48.4089 12.8912 49.9334 12.2953 51.8773 12.2953C53.7352 12.2953 55.182 12.8179 56.2167 13.8616C57.2515 14.9061 57.7689 16.3484 57.7689 18.1891V19.9057H49.2904C49.33 20.9113 49.6313 21.6964 50.1958 22.2609C50.7603 22.8254 51.5521 23.108 52.5711 23.108C53.3636 23.108 54.1113 23.0265 54.8171 22.8642C55.5789 22.6821 56.3198 22.4215 57.0279 22.0867V24.8246C56.4006 25.1341 55.7307 25.3622 55.0167 25.5087C54.3042 25.6635 53.4339 25.7413 52.4066 25.7413ZM63.8848 25.7413C62.3401 25.7413 61.1259 25.1498 60.2392 23.9663C59.3614 22.7827 58.9225 21.1431 58.9225 19.0474C58.9225 16.9203 59.3689 15.2657 60.2631 14.0829C61.164 12.8912 62.4029 12.296 63.979 12.296C65.6328 12.296 66.8949 12.93 67.7651 14.1981H67.8825C67.7031 13.2313 67.6126 12.3693 67.6126 11.6112V7.45789H71.2104V25.5087H68.459L67.7651 23.8265H67.6126C66.7977 25.1027 65.5543 25.7413 63.8848 25.7413ZM65.1431 22.9226C66.0597 22.9226 66.7304 22.6594 67.1543 22.133C67.5849 21.6074 67.8197 20.714 67.8593 19.4534V19.0706C67.8593 17.6784 67.6395 16.6811 67.2006 16.0777C66.7692 15.4743 66.0642 15.173 65.084 15.173C64.284 15.173 63.6612 15.5095 63.2149 16.1824C62.7752 16.8478 62.5554 17.8175 62.5554 19.0938C62.5554 20.37 62.7797 21.3293 63.2261 21.9708C63.6732 22.6048 64.3117 22.9226 65.1431 22.9226ZM84.8051 25.5087L83.7935 20.9734L82.4298 15.2426H82.3476L79.9483 25.5087H76.0911L72.3521 12.539H75.9266L77.4436 18.2818C77.6866 19.3106 77.9334 20.7297 78.1846 22.539H78.2549C78.2863 21.9513 78.4238 21.0198 78.6668 19.7435L78.8545 18.7573L80.4777 12.539H84.4283L85.9692 18.7573L86.1098 19.5117C86.259 20.2298 86.3807 20.9533 86.4747 21.6807C86.5292 22.0366 86.5606 22.3229 86.5689 22.539H86.6391C86.7102 21.9827 86.835 21.2209 87.016 20.2541C87.1335 19.5944 87.2629 18.9369 87.404 18.2818L88.9793 12.5398H92.4956L88.7087 25.5095L84.8051 25.5087ZM96.518 19.0011C96.518 20.2848 96.7296 21.2553 97.1528 21.9125C97.5842 22.5704 98.2818 22.8994 99.2463 22.8994C100.203 22.8994 100.888 22.5741 101.304 21.9244C101.727 21.2665 101.939 20.2923 101.939 19.0011C101.939 17.7173 101.727 16.7543 101.304 16.1121C100.881 15.4706 100.187 15.1498 99.2223 15.1498C98.2661 15.1498 97.576 15.4706 97.1528 16.1121C96.7296 16.7469 96.518 17.7091 96.518 19.0011ZM105.607 19.0011C105.607 21.1125 105.044 22.7633 103.915 23.9543C102.786 25.1454 101.214 25.7413 99.1992 25.7413C97.9371 25.7413 96.8238 25.4706 95.8593 24.9293C94.8956 24.3798 94.1547 23.5947 93.6373 22.5741C93.1199 21.5528 92.8612 20.3618 92.8612 19.0003C92.8612 16.8822 93.4212 15.2343 94.5427 14.059C95.6634 12.8837 97.2395 12.296 99.2694 12.296C100.531 12.296 101.645 12.5667 102.609 13.108C103.574 13.6493 104.314 14.4261 104.831 15.4392C105.349 16.453 105.607 17.6396 105.607 19.0011ZM110.465 19.0011C110.465 20.2848 110.677 21.2553 111.1 21.9125C111.531 22.5704 112.229 22.8994 113.193 22.8994C114.149 22.8994 114.836 22.5741 115.251 21.9244C115.675 21.2665 115.886 20.2923 115.886 19.0011C115.886 17.7173 115.675 16.7543 115.251 16.1121C114.828 15.4706 114.134 15.1498 113.17 15.1498C112.213 15.1498 111.524 15.4706 111.1 16.1121C110.677 16.7469 110.465 17.7091 110.465 19.0011ZM119.555 19.0011C119.555 21.1125 118.991 22.7633 117.862 23.9543C116.733 25.1454 115.161 25.7413 113.146 25.7413C111.884 25.7413 110.771 25.4706 109.807 24.9293C108.843 24.3798 108.102 23.5947 107.584 22.5741C107.067 21.5528 106.808 20.3618 106.808 19.0003C106.808 16.8822 107.369 15.2343 108.49 14.059C109.611 12.8837 111.186 12.296 113.217 12.296C114.479 12.296 115.592 12.5667 116.556 13.108C117.521 13.6493 118.262 14.4261 118.779 15.4392C119.296 16.453 119.555 17.6396 119.555 19.0011ZM125.717 25.7413C124.173 25.7413 122.958 25.1498 122.072 23.9663C121.194 22.7827 120.755 21.1431 120.755 19.0474C120.755 16.9203 121.202 15.2657 122.096 14.0829C122.997 12.8912 124.236 12.296 125.811 12.296C127.466 12.296 128.728 12.93 129.598 14.1981H129.716C129.536 13.2313 129.445 12.3693 129.445 11.6112V7.45789H133.044V25.5087H130.291L129.598 23.8265H129.445C128.63 25.1027 127.388 25.7413 125.717 25.7413ZM126.976 22.9226C127.893 22.9226 128.564 22.6594 128.987 22.133C129.417 21.6074 129.653 20.714 129.692 19.4534V19.0706C129.692 17.6784 129.473 16.6811 129.034 16.0777C128.603 15.4743 127.897 15.173 126.917 15.173C126.117 15.173 125.494 15.5095 125.047 16.1824C124.608 16.8478 124.389 17.8175 124.389 19.0938C124.389 20.37 124.612 21.3293 125.059 21.9708C125.506 22.6048 126.145 22.9226 126.976 22.9226Z" fill="#14121B"/>
<path d="M134.314 30.4972C133.491 30.4972 132.773 30.4127 132.163 30.243V27.2494C132.789 27.4041 133.362 27.4811 133.879 27.4811C134.678 27.4811 135.251 27.2344 135.596 26.7387C135.941 26.252 136.113 25.4856 136.113 24.4419V8.54879H139.759V24.4187C139.759 26.3985 139.3 27.9065 138.383 28.9428C137.466 29.9791 136.11 30.4972 134.314 30.4972ZM153.271 20.7993C153.271 22.3305 152.71 23.5372 151.589 24.418C150.476 25.3002 148.924 25.7413 146.933 25.7413C145.098 25.7413 143.475 25.4004 142.064 24.72V21.3794C143.224 21.8894 144.204 22.249 145.004 22.4583C145.811 22.6669 146.548 22.7716 147.215 22.7716C148.014 22.7716 148.625 22.6206 149.049 22.3185C149.48 22.0172 149.696 21.5686 149.696 20.9727C149.696 20.6408 149.602 20.3469 149.413 20.0912C149.225 19.8288 148.947 19.5768 148.578 19.3376C148.218 19.0983 147.477 18.7148 146.356 18.1892C145.306 17.7017 144.518 17.2337 143.993 16.7851C143.477 16.3484 143.05 15.8167 142.735 15.2187C142.421 14.6236 142.264 13.9275 142.264 13.1312C142.264 11.6307 142.777 10.4508 143.804 9.59253C144.839 8.73421 146.266 8.30505 148.085 8.30505C148.978 8.30505 149.829 8.40973 150.637 8.61833C151.452 8.82767 152.302 9.12075 153.188 9.50057L152.012 12.2953C151.095 11.9245 150.335 11.6651 149.731 11.5178C149.154 11.3734 148.562 11.2996 147.967 11.298C147.277 11.298 146.748 11.4565 146.379 11.7735C146.012 12.0905 145.827 12.5047 145.827 13.0146C145.827 13.3323 145.902 13.6105 146.05 13.8505C146.199 14.0823 146.435 14.3103 146.756 14.5346C147.085 14.7514 147.858 15.1454 149.072 15.7181C150.679 16.4755 151.781 17.2374 152.377 18.003C152.972 18.7611 153.271 19.6927 153.271 20.7993Z" fill="#14121B"/>
</g>
<path d="M38.7067 36.5227C39.1787 36.6696 40.0283 37.0577 40.0703 37.4353C40.1018 37.7919 39.378 38.4632 39.0738 38.4947C38.6648 38.5261 38.3396 38.138 38.0354 38.0122C35.8222 37.2255 34.0915 39.4806 35.1719 41.2113C35.6439 41.9665 36.8501 42.512 38.0669 42.0609C38.3815 41.9351 38.7382 41.547 39.1158 41.547C39.4305 41.5575 40.1122 42.0924 40.1018 42.47C40.0913 42.9315 39.2312 43.2777 38.8745 43.4245C36.1369 44.5468 33.116 42.9945 32.9272 40.2988C32.7804 38.0331 34.4796 36.5227 36.5984 36.3549C37.1019 36.3129 38.0249 36.3024 38.7067 36.5227ZM53.8144 37.9702C54.8633 39.4072 54.4962 41.4421 53.4787 42.5225C51.1711 44.9454 46.0525 43.7706 46 40.11C45.9791 38.9037 46.5245 38.0436 47.1119 37.4877C47.6993 36.9423 48.6328 36.4703 49.7761 36.3654C51.6536 36.2185 53.1221 37.0262 53.8144 37.9702ZM50.4474 42.2497C51.2551 42.1868 51.9998 41.6833 52.3249 41.0959C53.2585 39.3338 51.6222 37.7394 50.0069 37.8968C48.9055 38.0122 48.1608 38.6835 47.972 39.5331C47.6258 41.054 48.8845 42.3546 50.4474 42.2497ZM62.1579 41.6833C62.1579 42.1868 62.3467 43.2986 62.0215 43.6238C61.7698 43.8755 60.6999 43.8231 60.4901 43.6238C60.2698 43.393 60.3537 42.4595 60.3537 41.9246C60.3537 40.7918 60.3537 39.3967 60.3537 38.3163C60.3537 37.5192 60.1649 36.5961 60.8362 36.5122C61.088 36.4912 61.5914 36.4703 61.9166 36.5856C62.2627 36.701 62.5774 37.1625 62.8606 37.4982C63.5109 38.2639 63.8361 38.7044 64.5389 39.5436C64.8011 39.8477 65.2731 40.4876 65.4829 40.4246C65.7871 40.3512 65.6612 39.166 65.6612 38.5576C65.6612 38.0122 65.5458 36.9003 65.7871 36.6591C65.9864 36.4598 67.0562 36.3864 67.329 36.6591C67.5702 36.9003 67.4548 37.8758 67.4548 38.3583C67.4548 39.4492 67.4548 40.7918 67.4548 41.9665C67.4548 42.4595 67.5597 43.3826 67.329 43.6238C67.1087 43.8441 66.3325 43.8021 65.9969 43.6972C65.6192 43.5504 65.3151 43.0154 65.0423 42.7113C64.4235 41.977 63.8676 41.3582 63.2697 40.6239C63.0075 40.2883 62.7348 39.8687 62.2837 39.7114C62.0635 40.1729 62.1579 40.9386 62.1579 41.6833ZM76.6894 36.5227C77.4026 36.5227 79.018 36.3444 79.3431 36.6591C79.5634 36.8688 79.5529 37.708 79.3431 37.9178C79.018 38.2324 77.9166 38.0541 77.3712 38.0541C76.8362 38.0541 75.6615 37.9073 75.3678 38.159C75.116 38.3688 75.2104 39.2394 75.3678 39.3757C75.8503 39.7848 78.3886 39.1345 78.8606 39.617C79.1019 39.8582 79.0389 40.6974 78.8606 40.8757C78.5984 41.1274 77.6963 41.012 77.1299 41.012C76.595 41.012 75.6405 40.8757 75.3678 41.1169C74.9167 41.505 75.5146 43.2147 75.0846 43.6343C74.8958 43.8231 73.7629 43.865 73.5217 43.6343C73.3224 43.435 73.3958 42.5329 73.3958 41.9246C73.3958 40.7813 73.3958 39.4177 73.3958 38.2534C73.3958 37.729 73.2385 36.6276 73.7629 36.5647C74.6125 36.3864 75.5146 36.5227 76.6894 36.5227ZM88.6652 36.5437C89.3575 36.5437 90.9937 36.3549 91.3189 36.6905C91.5182 36.8898 91.5287 37.6975 91.3189 37.9073C91.0462 38.18 90.0497 38.0436 89.3784 38.0436C88.7281 38.0436 87.7317 37.8863 87.4065 38.1066C87.1967 38.2534 87.1023 39.0611 87.375 39.3023C87.8575 39.7219 90.312 39.0401 90.8049 39.5331C91.0042 39.7324 91.0357 40.54 90.8049 40.7603C90.5113 41.054 89.5777 40.8966 89.1477 40.8966C88.6547 40.8966 87.6792 40.7918 87.4065 40.9701C87.1862 41.1169 87.1443 41.977 87.375 42.1868C87.6687 42.449 88.7596 42.2917 89.4099 42.2917C89.9029 42.2917 91.1091 42.1553 91.3818 42.428C91.5706 42.6064 91.6126 43.4245 91.3818 43.6553C91.193 43.8441 90.4798 43.7811 89.9868 43.7811C88.854 43.7811 88.0883 43.7811 86.9345 43.7811C86.4205 43.7811 85.7178 43.8231 85.5394 43.6553C85.3401 43.4455 85.4031 42.5539 85.4031 41.956C85.4031 40.8232 85.4031 39.4596 85.4031 38.2744C85.4031 37.4877 85.2457 36.701 85.8436 36.5752C86.4415 36.4493 87.5533 36.5437 88.6652 36.5437ZM101.144 36.5122C102.812 36.5752 104.102 37.2674 104.133 38.8932C104.154 39.7324 103.703 40.4351 103.147 40.8337C103.001 40.9386 102.696 41.075 102.665 41.2743C102.633 41.5784 103.147 42.1029 103.389 42.428C103.588 42.7113 104.196 43.2357 104.102 43.5504C104.018 43.8021 102.812 43.8546 102.403 43.7182C101.994 43.5923 101.721 43.0364 101.417 42.6378C101.092 42.2078 100.85 41.6414 100.462 41.5155C100.127 41.3896 99.5182 41.4421 99.3713 41.6099C99.0986 41.9351 99.4238 43.3301 99.1301 43.6238C98.9413 43.8126 97.8294 43.886 97.5672 43.6238C97.3574 43.414 97.4413 42.47 97.4413 41.9246C97.4413 40.5715 97.4413 39.7009 97.4413 38.3163C97.4413 37.7814 97.3469 36.8793 97.5672 36.6591C97.6616 36.5647 97.8294 36.5542 97.8819 36.5437C98.721 36.3654 100.221 36.4808 101.144 36.5122ZM99.3713 39.8373C99.5916 40.089 100.651 40.0365 101.175 39.9841C101.857 39.9107 102.424 39.4282 102.203 38.6835C101.952 37.9282 100.609 37.9387 99.6126 38.0751C99.5391 38.0961 99.4238 38.0961 99.3398 38.2219C99.151 38.4737 99.2245 39.6694 99.3713 39.8373ZM113.305 36.5437C113.997 36.5437 115.634 36.3549 115.959 36.6905C116.158 36.8898 116.169 37.6975 115.959 37.9073C115.686 38.18 114.69 38.0436 114.018 38.0436C113.368 38.0436 112.372 37.8863 112.046 38.1066C111.837 38.2534 111.742 39.0611 112.015 39.3023C112.497 39.7219 114.952 39.0401 115.445 39.5331C115.644 39.7324 115.676 40.54 115.445 40.7603C115.151 41.054 114.218 40.8966 113.788 40.8966C113.295 40.8966 112.319 40.7918 112.046 40.9701C111.826 41.1169 111.784 41.977 112.015 42.1868C112.309 42.449 113.399 42.2917 114.05 42.2917C114.543 42.2917 115.749 42.1553 116.022 42.428C116.211 42.6064 116.252 43.4245 116.022 43.6553C115.833 43.8441 115.12 43.7811 114.627 43.7811C113.494 43.7811 112.728 43.7811 111.574 43.7811C111.06 43.7811 110.358 43.8231 110.179 43.6553C109.98 43.4455 110.043 42.5539 110.043 41.956C110.043 40.8232 110.043 39.4596 110.043 38.2744C110.043 37.4877 109.886 36.701 110.483 36.5752C111.081 36.4493 112.193 36.5437 113.305 36.5437ZM123.896 41.6833C123.896 42.1868 124.085 43.2986 123.759 43.6238C123.508 43.8755 122.438 43.8231 122.228 43.6238C122.008 43.393 122.092 42.4595 122.092 41.9246C122.092 40.7918 122.092 39.3967 122.092 38.3163C122.092 37.5192 121.903 36.5961 122.574 36.5122C122.826 36.4912 123.329 36.4703 123.655 36.5856C124.001 36.701 124.315 37.1625 124.599 37.4982C125.249 38.2639 125.574 38.7044 126.277 39.5436C126.539 39.8477 127.011 40.4876 127.221 40.4246C127.525 40.3512 127.399 39.166 127.399 38.5576C127.399 38.0122 127.284 36.9003 127.525 36.6591C127.724 36.4598 128.794 36.3864 129.067 36.6591C129.308 36.9003 129.193 37.8758 129.193 38.3583C129.193 39.4492 129.193 40.7918 129.193 41.9665C129.193 42.4595 129.298 43.3826 129.067 43.6238C128.847 43.8441 128.07 43.8021 127.735 43.6972C127.357 43.5504 127.053 43.0154 126.78 42.7113C126.161 41.977 125.606 41.3582 125.008 40.6239C124.745 40.2883 124.473 39.8687 124.022 39.7114C123.801 40.1729 123.896 40.9386 123.896 41.6833ZM140.892 36.5227C141.364 36.6696 142.214 37.0577 142.256 37.4353C142.287 37.7919 141.564 38.4632 141.259 38.4947C140.85 38.5261 140.525 38.138 140.221 38.0122C138.008 37.2255 136.277 39.4806 137.357 41.2113C137.829 41.9665 139.036 42.512 140.252 42.0609C140.567 41.9351 140.924 41.547 141.301 41.547C141.616 41.5575 142.298 42.0924 142.287 42.47C142.277 42.9315 141.417 43.2777 141.06 43.4245C138.322 44.5468 135.302 42.9945 135.113 40.2988C134.966 38.0331 136.665 36.5227 138.784 36.3549C139.287 36.3129 140.21 36.3024 140.892 36.5227ZM151.458 36.5437C152.15 36.5437 153.787 36.3549 154.112 36.6905C154.311 36.8898 154.322 37.6975 154.112 37.9073C153.839 38.18 152.843 38.0436 152.171 38.0436C151.521 38.0436 150.525 37.8863 150.199 38.1066C149.99 38.2534 149.895 39.0611 150.168 39.3023C150.65 39.7219 153.105 39.0401 153.598 39.5331C153.797 39.7324 153.829 40.54 153.598 40.7603C153.304 41.054 152.371 40.8966 151.941 40.8966C151.448 40.8966 150.472 40.7918 150.199 40.9701C149.979 41.1169 149.937 41.977 150.168 42.1868C150.462 42.449 151.553 42.2917 152.203 42.2917C152.696 42.2917 153.902 42.1553 154.175 42.428C154.364 42.6064 154.406 43.4245 154.175 43.6553C153.986 43.8441 153.273 43.7811 152.78 43.7811C151.647 43.7811 150.881 43.7811 149.727 43.7811C149.213 43.7811 148.511 43.8231 148.332 43.6553C148.133 43.4455 148.196 42.5539 148.196 41.956C148.196 40.8232 148.196 39.4596 148.196 38.2744C148.196 37.4877 148.039 36.701 148.637 36.5752C149.234 36.4493 150.346 36.5437 151.458 36.5437Z" fill="#14121B"/>
</svg>
