<svg width="24" height="24" viewBox="0 0 24 24" fill="none" xmlns="http://www.w3.org/2000/svg">
<path fill-rule="evenodd" clip-rule="evenodd" d="M16 2C16.5128 2 16.9355 2.38604 16.9933 2.88338L17 3V4H18C19.6569 4 21 5.34315 21 7V11V19C21 20.6569 19.6569 22 18 22H6C4.34315 22 3 20.6569 3 19V11V7C3 5.34315 4.34315 4 6 4H7V3C7 2.44772 7.44772 2 8 2C8.51284 2 8.93551 2.38604 8.99327 2.88338L9 3V4H15V3C15 2.44772 15.4477 2 16 2ZM19 7V10H5V7C5 6.44772 5.44772 6 6 6H7V7L7.00673 7.11662C7.06449 7.61396 7.48716 8 8 8C8.55228 8 9 7.55228 9 7V6H15V7L15.0067 7.11662C15.0645 7.61396 15.4872 8 16 8C16.5523 8 17 7.55228 17 7V6H18C18.5523 6 19 6.44772 19 7ZM19 12H5V19C5 19.5523 5.44772 20 6 20H18C18.5523 20 19 19.5523 19 19V12ZM7 15C7 14.4477 7.44772 14 8 14H10C10.5523 14 11 14.4477 11 15V17C11 17.5523 10.5523 18 10 18H8C7.44772 18 7 17.5523 7 17V15Z" fill="white"/>
</svg>
