<svg width="32" height="32" viewBox="0 0 32 32" fill="none" xmlns="http://www.w3.org/2000/svg">
<path d="M27.96 7.87021C24.03 4.92021 20.29 5.00021 20.29 5.00021L19.91 5.44021C24.55 6.86021 26.71 8.91021 26.71 8.91021C23.87 7.35021 21.09 6.59021 18.49 6.29021C16.52 6.07021 14.64 6.13021 12.97 6.35021C12.81 6.35021 12.67 6.38021 12.51 6.40021C11.55 6.48021 9.23 6.84021 6.31 8.12021C5.3 8.58021 4.7 8.91021 4.7 8.91021C4.7 8.91021 6.97 6.75021 11.88 5.33021L11.6 5.00021C11.6 5.00021 7.86 4.92021 3.93 7.87021C3.93 7.87021 0 15.0002 0 23.7902C0 23.7902 2.28999 27.7502 8.32999 27.9402C8.32999 27.9402 9.34 26.7102 10.16 25.6702C6.69 24.6302 5.38 22.4502 5.38 22.4502C5.38 22.4502 5.65 22.6402 6.14 22.9102C6.17 22.9402 6.19 22.9602 6.25 22.9902C6.33 23.0402 6.41 23.0702 6.5 23.1302C7.18 23.5102 7.86 23.8102 8.49 24.0602C9.61 24.5002 10.95 24.9302 12.5 25.2302C14.55 25.6102 16.95 25.7502 19.57 25.2602C20.85 25.0402 22.16 24.6602 23.53 24.0902C24.49 23.7402 25.55 23.2202 26.67 22.4802C26.67 22.4802 25.31 24.7202 21.73 25.7302C22.55 26.7702 23.53 27.9402 23.53 27.9402C29.56 27.7502 31.89 23.7902 31.89 23.7902C31.89 15.0002 27.96 7.87021 27.96 7.87021ZM10.84 21.2502C9.31 21.2502 8.05 19.8802 8.05 18.2202C8.05 16.5602 9.28 15.1902 10.84 15.1902C12.4 15.1902 13.65 16.5602 13.62 18.2202C13.62 19.8902 12.39 21.2502 10.84 21.2502ZM20.81 21.2502C19.28 21.2502 18.03 19.8802 18.03 18.2202C18.03 16.5602 19.26 15.1902 20.81 15.1902C22.36 15.1902 23.59 16.5602 23.59 18.2202C23.59 19.8802 22.36 21.2502 20.81 21.2502Z" fill="black"/>
</svg>
