<svg width="32" height="32" viewBox="0 0 32 32" fill="none" xmlns="http://www.w3.org/2000/svg">
<g clip-path="url(#clip0_4906_3281)">
<path d="M16 0C7.16 0 0 7.16 0 16V32H16C24.84 32 32 24.84 32 16C32 7.16 24.84 0 16 0ZM16 25.26C14.53 25.26 13.15 24.92 11.91 24.31C11.12 24.52 6.31 25.72 6.31 25.72C6.31 25.72 7.59 21.52 7.91 20.51C7.16 19.17 6.74 17.63 6.74 16C6.74 10.89 10.89 6.74 16 6.74C21.11 6.74 25.26 10.89 25.26 16C25.26 21.11 21.11 25.26 16 25.26Z" fill="black"/>
</g>
<defs>
<clipPath id="clip0_4906_3281">
<rect width="32" height="32" fill="white"/>
</clipPath>
</defs>
</svg>
