<svg width="24" height="24" viewBox="0 0 24 24" fill="none" xmlns="http://www.w3.org/2000/svg">
<path fill-rule="evenodd" clip-rule="evenodd" d="M18.2929 22.7071C18.6834 23.0976 19.3166 23.0976 19.7071 22.7071L21.7071 20.7071C22.0976 20.3166 22.0976 19.6834 21.7071 19.2929C21.3166 18.9024 20.6834 18.9024 20.2929 19.2929L20 19.5858V16C20 15.4477 19.5523 15 19 15C18.4477 15 18 15.4477 18 16V19.5858L17.7071 19.2929C17.3166 18.9024 16.6834 18.9024 16.2929 19.2929C15.9024 19.6834 15.9024 20.3166 16.2929 20.7071L18.2929 22.7071Z" fill="white"/>
<path d="M9 11C10.1046 11 11 10.1046 11 9C11 7.89543 10.1046 7 9 7C7.89543 7 7 7.89543 7 9C7 10.1046 7.89543 11 9 11Z" fill="white"/>
<path d="M14.9098 13.0126C14.9873 12.9919 15.0687 12.9902 15.147 13.0076C15.1573 13.0099 15.2147 13.0225 15.4693 13.182C15.9373 13.4752 16.5544 13.3335 16.8476 12.8654C17.1408 12.3974 16.999 11.7803 16.531 11.4871C16.2539 11.3135 15.9495 11.137 15.5801 11.055C15.1885 10.9682 14.7817 10.9768 14.3942 11.0803C13.9492 11.199 13.5636 11.4756 13.1793 11.7513L13.0862 11.818L10.5806 13.607C10.1014 13.9491 10.042 13.9765 10.0013 13.989C9.93271 14.0101 9.86033 14.0162 9.78914 14.0068C9.74696 14.0012 9.68382 13.9841 9.15443 13.7265L8.62607 13.4693L8.54292 13.4287C8.19429 13.2583 7.84365 13.0868 7.4623 13.0288C7.12942 12.9782 6.78975 12.9953 6.46365 13.0792C6.09009 13.1753 5.75849 13.3812 5.4288 13.5859L5.35016 13.6347L3.47422 14.7946C3.00449 15.0851 2.85915 15.7014 3.1496 16.1711C3.44005 16.6408 4.05631 16.7862 4.52605 16.4957L6.40199 15.3358C6.867 15.0482 6.92308 15.0262 6.9619 15.0162C7.02712 14.9994 7.09506 14.996 7.16163 15.0061C7.20127 15.0121 7.25929 15.0284 7.75089 15.2677L8.27925 15.5248L8.36901 15.5686C8.74343 15.7518 9.11975 15.9359 9.52784 15.9896C9.8838 16.0366 10.2457 16.0062 10.5889 15.9008C10.9823 15.7798 11.3228 15.5357 11.6615 15.2928L11.7427 15.2347L14.2484 13.4457C14.7949 13.0555 14.8644 13.0248 14.9098 13.0126Z" fill="white"/>
<path fill-rule="evenodd" clip-rule="evenodd" d="M10.3572 3H13.6428C14.7266 2.99999 15.6007 2.99998 16.3086 3.05782C17.0375 3.11737 17.6777 3.24318 18.27 3.54497C19.2108 4.02433 19.9757 4.78924 20.455 5.73005C20.7568 6.32234 20.8826 6.96253 20.9422 7.69138C21 8.39925 21 9.27339 21 10.3572V12C21 12.5523 20.5523 13 20 13C19.4477 13 19 12.5523 19 12V10.4C19 9.26339 18.9992 8.47108 18.9488 7.85424C18.8994 7.24907 18.8072 6.90138 18.673 6.63803C18.3854 6.07354 17.9265 5.6146 17.362 5.32698C17.0986 5.19279 16.7509 5.10062 16.1458 5.05118C15.5289 5.00078 14.7366 5 13.6 5H10.4C9.26339 5 8.47108 5.00078 7.85424 5.05118C7.24907 5.10062 6.90138 5.19279 6.63803 5.32698C6.07354 5.6146 5.6146 6.07354 5.32698 6.63803C5.19279 6.90138 5.10062 7.24907 5.05118 7.85424C5.00078 8.47108 5 9.26339 5 10.4V13.6C5 14.7366 5.00078 15.5289 5.05118 16.1458C5.10062 16.7509 5.19279 17.0986 5.32698 17.362C5.6146 17.9265 6.07354 18.3854 6.63803 18.673C6.90138 18.8072 7.24907 18.8994 7.85424 18.9488C8.47108 18.9992 9.26339 19 10.4 19H13C13.5523 19 14 19.4477 14 20C14 20.5523 13.5523 21 13 21H10.3572C9.27339 21 8.39925 21 7.69138 20.9422C6.96253 20.8826 6.32234 20.7568 5.73005 20.455C4.78924 19.9757 4.02433 19.2108 3.54497 18.27C3.24318 17.6777 3.11737 17.0375 3.05782 16.3086C2.99998 15.6007 2.99999 14.7266 3 13.6428V10.3572C2.99999 9.27341 2.99998 8.39926 3.05782 7.69138C3.11737 6.96253 3.24318 6.32234 3.54497 5.73005C4.02433 4.78924 4.78924 4.02433 5.73005 3.54497C6.32234 3.24318 6.96253 3.11737 7.69138 3.05782C8.39926 2.99998 9.27341 2.99999 10.3572 3Z" fill="white"/>
</svg>
