<svg width="24" height="24" viewBox="0 0 24 24" fill="none" xmlns="http://www.w3.org/2000/svg">
<path fill-rule="evenodd" clip-rule="evenodd" d="M13.7929 4.79295C15.288 3.29786 17.712 3.29786 19.2071 4.79295C20.6506 6.23649 20.7004 8.546 19.3564 10.0493L19.2071 10.2072L18.2071 11.2072L8.70711 20.7072C8.55083 20.8634 8.34815 20.9627 8.13144 20.9914L8 21.0001H4C3.48716 21.0001 3.06449 20.614 3.00673 20.1167L3 20.0001V16.0001C3 15.779 3.07316 15.5656 3.20608 15.392L3.29289 15.293L12.7927 5.79309C12.7928 5.79305 12.7928 5.793 12.7929 5.79295C12.7929 5.7929 12.793 5.79286 12.793 5.79281L13.7929 4.79295ZM13.5 7.91425L5 16.4141V18.9991H7.585L16.0856 10.4999L13.5 7.91425ZM17.5 9.08582L14.9142 6.50005L15.2071 6.20716L15.3301 6.09477C16.0484 5.49532 17.1185 5.53279 17.7929 6.20716L17.9053 6.33013C18.5047 7.04847 18.4673 8.11858 17.7929 8.79295L17.5 9.08582Z" fill="white"/>
</svg>
