<svg width="25" height="25" viewBox="0 0 25 25" fill="none" xmlns="http://www.w3.org/2000/svg">
<path fill-rule="evenodd" clip-rule="evenodd" d="M13.4933 5.38338C13.4355 4.88604 13.0128 4.5 12.5 4.5C11.9477 4.5 11.5 4.94772 11.5 5.5V11.5H5.5L5.38338 11.5067C4.88604 11.5645 4.5 11.9872 4.5 12.5C4.5 13.0523 4.94772 13.5 5.5 13.5H11.5V19.5L11.5067 19.6166C11.5645 20.114 11.9872 20.5 12.5 20.5C13.0523 20.5 13.5 20.0523 13.5 19.5V13.5H19.5L19.6166 13.4933C20.114 13.4355 20.5 13.0128 20.5 12.5C20.5 11.9477 20.0523 11.5 19.5 11.5H13.5V5.5L13.4933 5.38338Z" fill="white"/>
</svg>
