<svg width="24" height="24" viewBox="0 0 24 24" fill="none" xmlns="http://www.w3.org/2000/svg">
<path fill-rule="evenodd" clip-rule="evenodd" d="M2 12C2 6.47715 6.47715 2 12 2C17.5228 2 22 6.47715 22 12C22 17.5228 17.5228 22 12 22C6.47715 22 2 17.5228 2 12ZM20 12C20 7.58172 16.4183 4 12 4C7.58172 4 4 7.58172 4 12C4 16.4183 7.58172 20 12 20C16.4183 20 20 16.4183 20 12ZM15 11C15.5523 11 16 11.4477 16 12C16 12.5128 15.614 12.9355 15.1166 12.9933L15 13H13V15C13 15.5523 12.5523 16 12 16C11.4872 16 11.0645 15.614 11.0067 15.1166L11 15V13H9C8.44772 13 8 12.5523 8 12C8 11.4872 8.38604 11.0645 8.88338 11.0067L9 11H11V9C11 8.44772 11.4477 8 12 8C12.5128 8 12.9355 8.38604 12.9933 8.88338L13 9V11H15Z" fill="white"/>
</svg>
