<svg width="24" height="24" viewBox="0 0 24 24" fill="none" xmlns="http://www.w3.org/2000/svg">
<path fill-rule="evenodd" clip-rule="evenodd" d="M15.9945 3.85074C15.9182 2.81588 15.0544 2 14 2H10L9.85074 2.00549C8.81588 2.08183 8 2.94564 8 4V6H5.01169H4.99054H4L3.88338 6.00673C3.38604 6.06449 3 6.48716 3 7C3 7.55228 3.44772 8 4 8H4.07987L5.00345 19.083L5.00819 19.2507C5.09634 20.7511 6.40232 22 8 22H16L16.1763 21.9949C17.7511 21.9037 19 20.5977 19 19L19.9199 8H20L20.1166 7.99327C20.614 7.93551 21 7.51284 21 7C21 6.44772 20.5523 6 20 6H16V4L15.9945 3.85074ZM14 6V4H10V6H14ZM9 8H6.08649L7 19C7 19.5128 7.38604 19.9355 7.88338 19.9933L8 20H16C16.5155 20 16.9398 19.61 16.9969 19.0414L17.0035 18.917L17.9132 8H15H9ZM10 10C10.5128 10 10.9355 10.386 10.9933 10.8834L11 11V17C11 17.5523 10.5523 18 10 18C9.48716 18 9.06449 17.614 9.00673 17.1166L9 17V11C9 10.4477 9.44772 10 10 10ZM14.9933 10.8834C14.9355 10.386 14.5128 10 14 10C13.4477 10 13 10.4477 13 11V17L13.0067 17.1166C13.0645 17.614 13.4872 18 14 18C14.5523 18 15 17.5523 15 17V11L14.9933 10.8834Z" fill="white"/>
</svg>
