<svg width="24" height="24" viewBox="0 0 24 24" fill="none" xmlns="http://www.w3.org/2000/svg">
<path fill-rule="evenodd" clip-rule="evenodd" d="M14.0581 3.41062C12.2506 4.17678 11.0629 5.86276 11.0021 7.79013L11 7.97184L10.7566 7.9486C8.36496 7.68088 6.25862 6.43677 4.81312 4.41771C4.38714 3.82271 3.48731 3.87173 3.12849 4.50949L3.03061 4.69582L2.982 4.79441C2.2635 6.27975 1.79133 8.08572 1.96552 9.99814L1.99499 10.2712C2.27782 12.5341 3.49419 14.4856 5.77367 15.9493L5.94702 16.0568L5.86593 16.0999C4.55075 16.7625 3.34776 17.0515 2.03891 17.0006C0.982577 16.9595 0.593233 18.372 1.52145 18.8779C5.1192 20.8388 8.9821 21.4441 12.3128 20.4772C16.3734 19.2976 19.4652 16.2548 20.6478 12.0453L20.7751 11.5502C21.0125 10.5568 21.1467 9.54398 21.1761 8.52578L21.18 8.18984L22.0638 6.44843L22.2585 6.0501C22.5692 5.40184 22.7884 4.87805 22.9179 4.44242L22.964 4.27569C23.1932 3.44478 22.334 2.73258 21.56 3.11185C21.287 3.24561 21.0008 3.36179 20.6809 3.47118L20.324 3.58677L20.053 3.66693L19.281 3.88084C17.9447 2.76308 16.1369 2.62703 14.2693 3.32634L14.0581 3.41062ZM18.2516 5.66306C18.5089 5.95343 18.9109 6.06875 19.2831 5.95895L19.8064 5.81082L20.2 5.70184L19.4368 7.19656L19.3309 7.41475C19.3015 7.47786 19.2778 7.53239 19.2586 7.58145L19.2139 7.71539C19.1974 7.7773 19.1888 7.83394 19.1849 7.89586L19.1821 8.02987C19.1885 9.20363 19.0334 10.3752 18.7209 11.5092C17.7292 15.0394 15.1607 17.5672 11.755 18.5565L11.4431 18.641C9.66328 19.0886 7.67948 19.0105 5.66867 18.4391L5.57302 18.4108C6.54229 18.0492 7.51688 17.5232 8.55441 16.8321C9.21313 16.3933 9.12519 15.3995 8.39965 15.0832C5.48207 13.8112 4.1571 12.0107 3.95727 9.81672L3.93611 9.49831C3.90029 8.6502 4.0269 7.81227 4.25325 7.03753L4.29602 6.89984L4.46688 7.07146C6.47447 9.02033 9.13705 10.0734 12.0256 9.99951C12.5677 9.98564 13 9.54216 13 8.99984V7.99984C12.9829 6.74766 13.7533 5.6552 14.9707 5.19933C16.3629 4.67803 17.5151 4.83192 18.2516 5.66306Z" fill="white"/>
</svg>
