<svg width="24" height="24" viewBox="0 0 24 24" fill="none" xmlns="http://www.w3.org/2000/svg">
<path fill-rule="evenodd" clip-rule="evenodd" d="M13.4341 6.03568C10.8361 5.55732 8.45415 7.08585 7.97892 9.21954C7.87705 9.67689 7.47114 10.0022 7.00237 10.0022C4.9122 10.0022 3.30071 11.6051 3.30071 13.5022C3.30071 15.388 4.92085 17.0022 7.01238 17.0022C7.56491 17.0022 8.01283 17.4499 8.01283 18.0022C8.01283 18.5545 7.56491 19.0022 7.01238 19.0022C3.90156 19.0022 1.2998 16.5764 1.2998 13.5022C1.2998 10.6747 3.47888 8.40718 6.241 8.05098C7.30488 5.15062 10.5739 3.47598 13.7953 4.06854C16.8629 4.62568 19.1289 7.11064 19.114 10.0037C21.5421 10.0652 23.4998 12.0471 23.4998 14.5022C23.4998 16.9845 21.4812 19.0022 18.9978 19.0022H17.9973C17.4448 19.0022 16.9969 18.5545 16.9969 18.0022C16.9969 17.4499 17.4448 17.0022 17.9973 17.0022H18.9978C20.3761 17.0022 21.4989 15.8799 21.4989 14.5022C21.4989 13.1164 20.378 12.0022 18.9978 12.0022H17.9973C17.6932 12.0022 17.4056 11.8639 17.2157 11.6264C17.0259 11.389 16.9544 11.078 17.0215 10.7815C17.495 8.69033 16.0071 6.50252 13.4367 6.03615L13.4341 6.03568Z" fill="white"/>
<path fill-rule="evenodd" clip-rule="evenodd" d="M11.3072 11.2951C11.6979 10.9046 12.3314 10.9046 12.7221 11.2951L15.7234 14.2951C16.1141 14.6856 16.1141 15.3188 15.7234 15.7093C15.3327 16.0999 14.6993 16.0999 14.3086 15.7093L12.0146 13.4164L9.72071 15.7093C9.33 16.0999 8.69655 16.0999 8.30585 15.7093C7.91515 15.3188 7.91515 14.6856 8.30585 14.2951L11.3072 11.2951Z" fill="white"/>
<path fill-rule="evenodd" clip-rule="evenodd" d="M12.0146 11.0022C12.5672 11.0022 13.0151 11.4499 13.0151 12.0022V21.0022C13.0151 21.5545 12.5672 22.0022 12.0146 22.0022C11.4621 22.0022 11.0142 21.5545 11.0142 21.0022V12.0022C11.0142 11.4499 11.4621 11.0022 12.0146 11.0022Z" fill="white"/>
</svg>
